<svg xmlns="http://www.w3.org/2000/svg" xmlns:xlink="http://www.w3.org/1999/xlink" version="1.1" id="Capa_1" x="0px" y="0px" viewBox="0 0 495.307 495.307" style="enable-background:new 0 0 495.307 495.307;" xml:space="preserve"><g>
                <path d="M51.575,162.357c13.025,0,23.622-10.598,23.622-23.623c0-13.024-10.597-23.62-23.623-23.62   c-13.025,0-23.621,10.596-23.621,23.62C27.953,151.76,38.55,162.357,51.575,162.357z M51.574,123.614   c8.339,0,15.123,6.783,15.123,15.12c0,8.339-6.784,15.123-15.122,15.123s-15.122-6.784-15.122-15.123   C36.453,130.397,43.236,123.614,51.574,123.614z" fill="#FFFFFF"></path>
                <path d="M51.574,187.349c-13.025,0-23.621,10.597-23.621,23.621c0,13.025,10.597,23.623,23.622,23.623s23.622-10.598,23.622-23.623   C75.197,197.945,64.6,187.349,51.574,187.349z M51.575,226.093c-8.338,0-15.122-6.784-15.122-15.123   c0-8.338,6.783-15.121,15.121-15.121c8.339,0,15.123,6.783,15.123,15.121C66.697,219.309,59.914,226.093,51.575,226.093z" fill="#FFFFFF"></path>
                <path d="M51.574,259.584c-13.025,0-23.621,10.596-23.621,23.62c0,13.025,10.597,23.623,23.622,23.623s23.622-10.598,23.622-23.623   C75.197,270.18,64.6,259.584,51.574,259.584z M51.575,298.327c-8.338,0-15.122-6.784-15.122-15.123   c0-8.337,6.783-15.12,15.121-15.12c8.339,0,15.123,6.783,15.123,15.12C66.697,291.543,59.914,298.327,51.575,298.327z" fill="#FFFFFF"></path>
                <path d="M128.439,196.99c-2.347,0-4.25,1.902-4.25,4.25v51.661c0,2.348,1.903,4.25,4.25,4.25c2.347,0,4.25-1.902,4.25-4.25V201.24   C132.689,198.893,130.787,196.99,128.439,196.99z" fill="#FFFFFF"></path>
                <path d="M495.306,126.631c0-15.381-8.587-29.245-21.923-36.267l4.981-4.981c4.519-4.519,7.008-10.526,7.008-16.917   c0.001-6.392-2.489-12.4-7.008-16.92l-9.74-9.742c-4.519-4.518-10.528-7.007-16.919-7.007c-6.391,0-12.399,2.489-16.918,7.008   L390.97,85.622H41.008c-10.914,0-21.201,4.277-28.966,12.043S0,115.718,0,126.631v292.87c0,22.612,18.396,41.009,41.009,41.009   h413.288c22.613,0,41.01-18.396,41.01-41.009L495.306,126.631z M440.797,47.814c2.913-2.913,6.787-4.517,10.907-4.517   c4.121,0,7.996,1.604,10.909,4.517l9.739,9.741c2.914,2.914,4.519,6.789,4.519,10.909c0,4.121-1.604,7.994-4.519,10.907   L248.011,303.719c-6.187,6.187-43.382,26.81-56.654,26.81c-0.868,0-1.34-0.104-1.555-0.173c-0.625-1.701-0.124-9.534,8.995-28.535   c6.622-13.801,14.477-26.477,17.659-29.659L395.733,92.88c0.001-0.002,0.003-0.004,0.005-0.005l19.48-19.48l7.673,7.673   l-99.16,99.16c-1.66,1.659-1.66,4.351,0,6.01c0.83,0.83,1.917,1.245,3.005,1.245c1.088,0,2.175-0.415,3.005-1.245l99.159-99.159   l7.941,7.94c0.83,0.83,1.917,1.245,3.005,1.245c1.087,0,2.175-0.415,3.005-1.245c1.66-1.659,1.66-4.351,0-6.01l-21.625-21.625   L440.797,47.814z M8.5,419.501v-292.87c0-8.642,3.392-16.795,9.552-22.955c6.16-6.161,14.313-9.554,22.956-9.554h50.419   l0.001,357.888H41.009C23.083,452.01,8.5,437.427,8.5,419.501z M454.297,452.01h-3.341v-95.785c0-2.348-1.903-4.25-4.25-4.25   c-2.347,0-4.25,1.902-4.25,4.25v95.785H132.69l-0.001-175.265c0-2.348-1.903-4.25-4.25-4.25c-2.347,0-4.25,1.902-4.25,4.25   l0.001,175.265H99.928L99.927,94.122H382.47L210.444,266.151c-4.412,4.411-13.358,19.356-19.941,33.315   c-13.999,29.68-8.724,34.956-6.738,36.941c1.739,1.739,4.293,2.62,7.591,2.62c16.02,0,55.331-21.966,62.665-29.3L467.009,96.736   c11.941,5.096,19.796,16.805,19.796,29.895l0.001,292.87C486.807,437.427,472.223,452.01,454.297,452.01z" fill="#FFFFFF"></path>
                </g>
              </svg>